{
  "asset": {
    "generator": "Khronos glTF Blender I/O v1.4.40",
    "version": "2.0"
  },
  "scene": 0,
  "scenes": [
    {
      "name": "Scene",
      "nodes": [0, 1, 2]
    }
  ],
  "nodes": [
    {
      "mesh": 0,
      "name": "Cube",
      "rotation": [0, -0.7019954919815063, 0, 0.7121813893318176],
      "scale": [0.9433314800262451, 1.5375581979751587, 0.14496564865112305],
      "translation": [
        15.91743278503418, -0.25789758563041687, -0.7809962034225464
      ]
    },
    {
      "mesh": 1,
      "name": "Cube.001",
      "rotation": [
        0.6406269073486328, -0.31112614274024963, -0.6314644813537598,
        -0.3066764771938324
      ],
      "scale": [0.9433314800262451, 1.5375581979751587, 0.14496564865112305],
      "translation": [
        15.963318824768066, -0.35593897104263306, -0.7809962034225464
      ]
    },
    {
      "mesh": 2,
      "name": "Cube.002",
      "rotation": [
        0.7058185338973999, -0.09498660266399384, -0.6957237124443054,
        -0.09362834692001343
      ],
      "scale": [0.924906313419342, 1.7558531761169434, 0.14402496814727783],
      "translation": [
        15.91743278503418, -0.18586444854736328, -0.7867588400840759
      ]
    }
  ],
  "animations": [
    {
      "channels": [
        {
          "sampler": 0,
          "target": {
            "node": 1,
            "path": "rotation"
          }
        }
      ],
      "name": "toggleLightSwitch",
      "samplers": [
        {
          "input": 16,
          "interpolation": "LINEAR",
          "output": 17
        }
      ]
    }
  ],
  "materials": [
    {
      "doubleSided": true,
      "name": "screw",
      "pbrMetallicRoughness": {
        "baseColorFactor": [0, 0, 0, 1],
        "metallicFactor": 0,
        "roughnessFactor": 0.5
      }
    },
    {
      "doubleSided": true,
      "name": "switchBody",
      "pbrMetallicRoughness": {
        "baseColorFactor": [
          0.800000011920929, 0.800000011920929, 0.800000011920929, 1
        ],
        "metallicFactor": 0,
        "roughnessFactor": 0.5
      }
    },
    {
      "doubleSided": true,
      "name": "switch",
      "pbrMetallicRoughness": {
        "baseColorFactor": [
          0.800000011920929, 0.800000011920929, 0.800000011920929, 1
        ],
        "metallicFactor": 0,
        "roughnessFactor": 0.5
      }
    },
    {
      "doubleSided": true,
      "name": "Material",
      "pbrMetallicRoughness": {
        "metallicFactor": 0,
        "roughnessFactor": 0.4000000059604645
      }
    }
  ],
  "meshes": [
    {
      "name": "Cube",
      "primitives": [
        {
          "attributes": {
            "POSITION": 0,
            "NORMAL": 1,
            "TEXCOORD_0": 2
          },
          "indices": 3,
          "material": 0
        },
        {
          "attributes": {
            "POSITION": 4,
            "NORMAL": 5,
            "TEXCOORD_0": 6
          },
          "indices": 7,
          "material": 1
        }
      ]
    },
    {
      "name": "Cube.001",
      "primitives": [
        {
          "attributes": {
            "POSITION": 8,
            "NORMAL": 9,
            "TEXCOORD_0": 10
          },
          "indices": 11,
          "material": 2
        }
      ]
    },
    {
      "name": "Cube.002",
      "primitives": [
        {
          "attributes": {
            "POSITION": 12,
            "NORMAL": 13,
            "TEXCOORD_0": 14
          },
          "indices": 15,
          "material": 3
        }
      ]
    }
  ],
  "accessors": [
    {
      "bufferView": 0,
      "componentType": 5126,
      "count": 940,
      "max": [0.061389945447444916, 0.5185633897781372, 1.0512959957122803],
      "min": [-0.06092584878206253, -0.47765958309173584, 0.25535184144973755],
      "type": "VEC3"
    },
    {
      "bufferView": 1,
      "componentType": 5126,
      "count": 940,
      "type": "VEC3"
    },
    {
      "bufferView": 2,
      "componentType": 5126,
      "count": 940,
      "type": "VEC2"
    },
    {
      "bufferView": 3,
      "componentType": 5123,
      "count": 1584,
      "type": "SCALAR"
    },
    {
      "bufferView": 4,
      "componentType": 5126,
      "count": 132,
      "max": [0.9754723906517029, 0.9754723906517029, 1],
      "min": [-0.9754723906517029, -0.9754723906517029, -0.30045485496520996],
      "type": "VEC3"
    },
    {
      "bufferView": 5,
      "componentType": 5126,
      "count": 132,
      "type": "VEC3"
    },
    {
      "bufferView": 6,
      "componentType": 5126,
      "count": 132,
      "type": "VEC2"
    },
    {
      "bufferView": 7,
      "componentType": 5123,
      "count": 255,
      "type": "SCALAR"
    },
    {
      "bufferView": 8,
      "componentType": 5126,
      "count": 300,
      "max": [0.08479758352041245, 0.15797388553619385, 4.258662700653076],
      "min": [-0.09600325673818588, -0.12633734941482544, 1],
      "type": "VEC3"
    },
    {
      "bufferView": 9,
      "componentType": 5126,
      "count": 300,
      "type": "VEC3"
    },
    {
      "bufferView": 10,
      "componentType": 5126,
      "count": 300,
      "type": "VEC2"
    },
    {
      "bufferView": 11,
      "componentType": 5123,
      "count": 492,
      "type": "SCALAR"
    },
    {
      "bufferView": 12,
      "componentType": 5126,
      "count": 65,
      "max": [0.08479758352041245, 0.15741389989852905, 1],
      "min": [-0.09600325673818588, -0.08000179380178452, 0.20952455699443817],
      "type": "VEC3"
    },
    {
      "bufferView": 13,
      "componentType": 5126,
      "count": 65,
      "type": "VEC3"
    },
    {
      "bufferView": 14,
      "componentType": 5126,
      "count": 65,
      "type": "VEC2"
    },
    {
      "bufferView": 15,
      "componentType": 5123,
      "count": 111,
      "type": "SCALAR"
    },
    {
      "bufferView": 16,
      "componentType": 5126,
      "count": 81,
      "max": [3.3333333333333335],
      "min": [0],
      "type": "SCALAR"
    },
    {
      "bufferView": 17,
      "componentType": 5126,
      "count": 81,
      "type": "VEC4"
    }
  ],
  "bufferViews": [
    {
      "buffer": 0,
      "byteLength": 11280,
      "byteOffset": 0
    },
    {
      "buffer": 0,
      "byteLength": 11280,
      "byteOffset": 11280
    },
    {
      "buffer": 0,
      "byteLength": 7520,
      "byteOffset": 22560
    },
    {
      "buffer": 0,
      "byteLength": 3168,
      "byteOffset": 30080
    },
    {
      "buffer": 0,
      "byteLength": 1584,
      "byteOffset": 33248
    },
    {
      "buffer": 0,
      "byteLength": 1584,
      "byteOffset": 34832
    },
    {
      "buffer": 0,
      "byteLength": 1056,
      "byteOffset": 36416
    },
    {
      "buffer": 0,
      "byteLength": 510,
      "byteOffset": 37472
    },
    {
      "buffer": 0,
      "byteLength": 3600,
      "byteOffset": 37984
    },
    {
      "buffer": 0,
      "byteLength": 3600,
      "byteOffset": 41584
    },
    {
      "buffer": 0,
      "byteLength": 2400,
      "byteOffset": 45184
    },
    {
      "buffer": 0,
      "byteLength": 984,
      "byteOffset": 47584
    },
    {
      "buffer": 0,
      "byteLength": 780,
      "byteOffset": 48568
    },
    {
      "buffer": 0,
      "byteLength": 780,
      "byteOffset": 49348
    },
    {
      "buffer": 0,
      "byteLength": 520,
      "byteOffset": 50128
    },
    {
      "buffer": 0,
      "byteLength": 222,
      "byteOffset": 50648
    },
    {
      "buffer": 0,
      "byteLength": 324,
      "byteOffset": 50872
    },
    {
      "buffer": 0,
      "byteLength": 1296,
      "byteOffset": 51196
    }
  ],
  "buffers": [
    {
      "byteLength": 52492,
      "uri": "data:application/octet-stream;base64,"
    }
  ]
}
